<svg width="68px" height="68px" viewBox="0 0 68 68" version="1.1" xmlns="http://www.w3.org/2000/svg"
  xmlns:xlink="http://www.w3.org/1999/xlink">
  <g id="Symbols" stroke="none" stroke-width="1" fill="none" fill-rule="evenodd">
    <g id="Github" transform="translate(2.000000, 2.000000)">
      <path
        d="M20,59 L20,52 C20,51.9262278 20.002682,51.8526949 20.0080235,51.7795136 C20.002675,51.6868996 20,51.5937182 20,51.5 C20,47.0817325 25.6967748,43 32,43 C38.3032252,43 44,47.0817325 44,51.5 C44,51.5937182 43.997325,51.6868996 43.9919765,51.7795136 C43.997318,51.8526949 44,51.9262278 44,52 L44,59 L45,59 C46.6568542,59 48,60.3431458 48,62 C48,63.6568542 46.6568542,65 45,65 L41,65 C39.3431458,65 38,63.6568542 38,62 L38,55.9213386 L39,55.9213386 L39.3508901,56.8577553 C38.6942771,57.1037985 37.9793395,57.3113936 37.2145595,57.4793971 L37,56.5026861 L38,56.5026861 L38,62 C38,63.6568542 36.6568542,65 35,65 C33.3431458,65 32,63.6568542 32,62 L32,56.9823965 L33,56.9823965 L33.035569,57.9817638 C32.6941002,57.9939172 32.3486907,58 32,58 C31.6513093,58 31.3058998,57.9939172 30.964431,57.9817638 L31,56.9823965 L32,56.9823965 L32,62 C32,63.6568542 30.6568542,65 29,65 C27.3431458,65 26,63.6568542 26,62 L26,56.5026861 L27,56.5026861 L26.7854405,57.4793971 C26.0206605,57.3113936 25.3057229,57.1037985 24.6491099,56.8577553 L25,55.9213386 L26,55.9213386 L26,62 C26,63.6568542 24.6568542,65 23,65 L19,65 C17.3431458,65 16,63.6568542 16,62 C16,60.3431458 17.3431458,59 19,59 L20,59 Z"
        id="Oval-3-Copy" stroke="#FFFFFF" stroke-width="2" fill="#555555"></path>
      <path
        d="M19.9031574,5.46127348 C23.7190359,4.48618928 27.8053128,3.97881337 32,3.97881337 C36.2323245,3.97881337 40.3541459,4.49534434 44.198917,5.48748311 C46.4664723,1.5643922 51.8492323,-1.6262698 53.8205787,-0.90875839 C56.00825,-0.112511183 58.1657399,6.60603055 56.8140577,11.2758548 C62.034992,15.1443643 65,20.1393793 65,25.4788134 C65,37.4700586 50.1570658,46.9788134 32,46.9788134 C13.8429342,46.9788134 -1,37.4700586 -1,25.4788134 C-1,20.1058428 2.00241286,15.08226 7.28237714,11.2047035 C5.97284183,6.53808877 8.11955062,-0.116546252 10.2961356,-0.90875839 C12.2612914,-1.62401662 17.630425,1.55275667 19.9031574,5.46127348 Z"
        id="Oval-2" stroke="#FFFFFF" stroke-width="2" fill="#555555"></path>
      <path
        d="M32,43 C46.3594035,43 58,35.9558441 58,28.5 C58,21.0441559 46.3594035,15 32,15 C17.6405965,15 6,21.0441559 6,28.5 C6,35.9558441 17.6405965,43 32,43 Z"
        id="Oval" fill="#FFFFFF"></path>
      <path
        d="M32,37.5 C33.5,37.5 35,36.5 35,35 C35,35.7409678 33.5,37.5 32,37.5 C30.5,37.5 29,35.7590322 29,35 C29,36.5 30.5,37.5 32,37.5 Z"
        id="Oval" stroke="#555555" stroke-width="2"></path>
      <circle id="Oval" fill="#555555" cx="29" cy="35" r="1"></circle>
      <circle id="Oval-Copy-3" fill="#555555" cx="35" cy="35" r="1"></circle>
      <ellipse id="Oval" fill="#555555" cx="22.5" cy="25" rx="3.5" ry="6"></ellipse>
      <ellipse id="Oval-Copy-2" fill="#555555" cx="41.5" cy="25" rx="3.5" ry="6"></ellipse>
    </g>
  </g>
</svg>