<svg width="18px" height="18px" viewBox="0 0 18 18" version="1.1" xmlns="http://www.w3.org/2000/svg"
  xmlns:xlink="http://www.w3.org/1999/xlink">
  <g id="Home" stroke="none" stroke-width="1" fill="none" fill-rule="evenodd">
    <g id="Konami" transform="translate(-16.000000, -6.000000)">
      <g id="Group-11" transform="translate(0.000000, -0.000000)">
        <g id="Github" transform="translate(17.000000, 7.000000)">
          <path
            d="M3.05555556,1.1883185 C3.05555556,1.10667917 3.05555556,1.03968274 3.05555556,0.833333333 C3.05555556,0.216386992 3.6419239,-0.333333333 4.26666667,-0.333333333 C4.525,-0.333333333 4.525,-0.333333333 5.3,-0.333333333 C6.03194444,-0.333333333 6.03194444,-0.333333333 6.32863797,-0.333333333 C6.33253601,-0.333333333 6.33253601,-0.333333333 6.33333333,-0.333333333 C6.93703704,-0.333333333 6.93703704,-0.333333333 9.95555556,-0.333333333 C11.3481481,-0.333333333 11.3481481,-0.333333333 11.9111111,-0.333333333 C12.5358539,-0.333333333 13.1222222,0.216386992 13.1222222,0.833333333 C13.1222222,1.0396826 13.1222222,1.10667908 13.1222222,1.18831834 L16.0913872,5.8764738 C16.3637924,6.30658721 16.5,6.79596899 16.5,7.33333333 C16.5,7.76304835 16.5,7.76304835 16.5,8.75741164 C16.5,9.93999103 16.5,9.93999103 16.5,11.3107865 C16.5,11.4072941 16.5,11.4072941 16.5,11.5037361 C16.5,14.310537 16.5,14.310537 16.5,15.3333333 C16.5,15.9502797 15.9136317,16.5 15.2888889,16.5 C14.9068582,16.5 14.9068582,16.5 13.6512366,16.5 C12.0698693,16.5 12.0698693,16.5 10.0591098,16.5 C9.08528529,16.5 9.08528529,16.5 8.08888889,16.5 C5.45555556,16.5 5.45555556,16.5 3.23888889,16.5 C1.43888889,16.5 1.43888889,16.5 0.888888889,16.5 C0.264146124,16.5 -0.322222222,15.9502797 -0.322222222,15.3333333 C-0.322222222,15.0669147 -0.322222222,15.0669147 -0.322222222,14.207791 C-0.322222222,11.66174 -0.322222222,11.66174 -0.322222222,7.32015301 C-0.322222222,6.66027164 -0.170664642,6.13985396 0.1076809,5.84285748 L3.05555556,1.18831855 Z"
            id="Path-17-Copy" stroke="#FFFFFF" fill="#FFFFFF"></path>
          <path
            d="M0.177777778,15.3333333 C0.177777778,15.1207833 0.177777778,12.0052787 0.177777778,7.32015301 C0.177777778,6.77338434 0.295215331,6.37012784 0.530090438,6.11038352 L3.55555556,1.33333333 C3.55555556,1.22222222 3.55555556,1.05555556 3.55555556,0.833333333 C3.55555556,0.5 3.91111111,0.166666667 4.26666667,0.166666667 C4.5037037,0.166666667 5.21481481,0.166666667 6.4,0.166666667 L9.95555556,0.166666667 C11.0222222,0.166666667 11.6740741,0.166666667 11.9111111,0.166666667 C12.2666667,0.166666667 12.6222222,0.5 12.6222222,0.833333333 C12.6222222,1.05555556 12.6222222,1.22222222 12.6222222,1.33333333 L15.6689777,6.14399984 C15.8896592,6.49244439 16,6.88888889 16,7.33333333 C16,8 16,15.121074 16,15.3333333 C16,15.6666667 15.6444444,16 15.2888889,16 C14.9333333,16 1.24444444,16 0.888888889,16 C0.533333333,16 0.177777778,15.6666667 0.177777778,15.3333333 Z M11.9111111,1.16666667 C11.9111111,0.944444444 11.7925926,0.833333333 11.5555556,0.833333333 C7.46721578,0.833333333 4.84477908,0.833333333 4.62222222,0.833333333 C4.38518519,0.833333333 4.26666667,0.944444444 4.26666667,1.16666667 L4.26666667,1.33333333 L11.9111111,1.33333333 L11.9111111,1.16666667 Z M1.24444444,15.3333333 C1.36296296,15.3333333 3.25925926,15.3333333 6.93333333,15.3333333 L6.93333333,7.33333333 L0.888888889,7.33333333 C0.888888889,12.3333333 0.888888889,14.8888889 0.888888889,15 C0.888888889,15.1666667 1.06666667,15.3333333 1.24444444,15.3333333 Z M7.64444444,7.33333333 L7.64444444,15.3333333 C12.3851852,15.3333333 14.8148148,15.3333333 14.9333333,15.3333333 C15.1111111,15.3333333 15.2888889,15.1666667 15.2888889,15 C15.2888889,14.8888889 15.2888889,12.3333333 15.2888889,7.33333333 L7.64444444,7.33333333 Z M7.46666667,6.66666667 L15.1111111,6.66666667 L12.0888889,2 L4.62222222,2 L7.46666667,6.66666667 Z M1.6,6.66666667 L6.75555556,6.66666667 L5.33333333,4.33333333 L1.6,6.66666667 Z M3.91111111,2.16666667 L1.6,5.83333333 L4.97777778,3.83333333 L3.91111111,2.16666667 Z"
            id="Path-18" fill="#555555"></path>
        </g>
      </g>
    </g>
  </g>
</svg>