<svg width="68px" height="74px" viewBox="0 0 68 74" version="1.1" xmlns="http://www.w3.org/2000/svg"
  xmlns:xlink="http://www.w3.org/1999/xlink">
  <g id="Symbols" stroke="none" stroke-width="1" fill="none" fill-rule="evenodd">
    <g id="Gimei" transform="translate(2.000000, 2.000000)">
      <path
        d="M32,71 C15.5749337,71 -1,51.476653 -1,32.7007299 C-1,19.3678908 -0.341434186,14.2149277 3.17151337,9.0178132 C7.71516475,2.29585791 16.6780821,-1 32,-1 C47.3219179,-1 56.2848352,2.29585791 60.8284866,9.0178132 C64.3414342,14.2149277 65,19.3678908 65,32.7007299 C65,51.476653 48.4250663,71 32,71 Z"
        id="Oval" stroke="#FFFFFF" stroke-width="2" fill="#555555"></path>
      <path
        d="M32,68 C47,68 62,49.8602247 62,32.8321168 C62,15.8040089 62,2 32,2 C2,2 2,15.8040089 2,32.8321168 C2,49.8602247 17,68 32,68 Z"
        id="Oval-Copy" fill="#FFFFFF"></path>
      <path
        d="M0,31 L30.0606061,31 C30.7070707,30.6666667 31.3535354,30.5 32,30.5 C32.6464646,30.5 33.2929293,30.6666667 33.9393939,31 L64,31 L64,33.0000147 L33.9393939,33 C33.2929293,32.6666667 32.6464646,32.5 32,32.5 C31.3535354,32.5 30.7070707,32.6666667 30.0606061,33 L0,33.0000147 L0,31 Z"
        id="Rectangle-Copy-2" fill="#555555"></path>
      <circle id="Oval-Copy-2" fill="#555555" cx="17" cy="32" r="13"></circle>
      <circle id="Oval-Copy-3" fill="#555555" cx="47" cy="32" r="13"></circle>
      <path
        d="M27,55 C28.0416667,53 28.875,52 29.5,52 C30.125,52 30.9583333,52.6666667 32,54 C33.1111111,52.6666667 33.9444444,52 34.5,52 C35.0555556,52 35.8888889,53 37,55 L27,55 Z"
        id="Path-15" fill="#555555"></path>
      <path d="M27,56 C27,57.5 28.875,59.5 32,59.5 C35.125,59.5 37,57.5 37,56 C37,56 27,56 27,56 Z" id="Path-16"
        fill="#555555"></path>
      <path
        d="M22.92,32.736 L23.08,32.736 C23.912,32.736 24.344,33.12 24.344,33.872 L24.344,34 C24.264,35.376 24.008,36.912 23.672,37.952 C23.384,38.816 22.888,39.152 21.832,39.152 C21.304,39.152 20.648,39.104 20.2,38.992 C19.944,38.928 19.784,38.736 19.784,38.464 C19.784,38.416 19.784,38.352 19.8,38.288 C19.864,38 20.056,37.872 20.28,37.872 C20.328,37.872 20.36,37.872 20.408,37.888 C20.808,37.984 21.288,38.048 21.72,38.048 C22.168,38.048 22.456,37.888 22.616,37.376 C22.872,36.544 23.08,35.296 23.128,34.208 L23.128,34.16 C23.128,33.84 22.984,33.76 22.632,33.76 L15.256,33.76 C14.856,34.256 14.456,34.72 14.008,35.168 C13.864,35.312 13.704,35.392 13.544,35.392 C13.4,35.392 13.256,35.328 13.128,35.216 C13,35.104 12.936,34.944 12.936,34.784 C12.936,34.64 13,34.496 13.128,34.368 C14.968,32.608 16.264,30.56 17.128,28.272 L14.264,28.272 C13.992,28.272 13.864,28.048 13.864,27.744 C13.864,27.44 13.992,27.232 14.264,27.232 L17.496,27.232 C17.72,26.496 17.912,25.744 18.072,24.96 C18.136,24.656 18.344,24.528 18.616,24.528 C18.664,24.528 18.744,24.528 18.808,24.544 C19.128,24.592 19.288,24.8 19.288,25.072 C19.288,25.12 19.288,25.184 19.272,25.232 C19.112,25.904 18.92,26.576 18.696,27.232 L21.176,27.232 C22.008,27.232 22.44,27.6 22.44,28.192 C22.44,28.288 22.424,28.4 22.392,28.512 C22.312,29.008 22.184,29.504 22.04,29.984 L22.168,29.984 C22.936,29.984 23.336,30.352 23.336,30.928 C23.336,30.992 23.336,31.088 23.32,31.168 C23.224,31.696 23.08,32.224 22.92,32.736 Z M16.008,32.736 L21.768,32.736 C21.944,32.24 22.056,31.696 22.12,31.328 L22.12,31.248 C22.12,31.072 22.008,30.976 21.8,30.976 L17.096,30.976 C16.76,31.584 16.392,32.16 16.008,32.736 Z M17.592,29.984 L20.888,29.984 C21.032,29.504 21.16,29.024 21.192,28.64 C21.208,28.608 21.208,28.56 21.208,28.528 C21.208,28.352 21.096,28.272 20.888,28.272 L18.328,28.272 C18.12,28.848 17.864,29.424 17.592,29.984 Z M11.368,38.912 L11.368,32.448 C11.368,31.776 11.416,31.04 11.496,30.336 C11.192,30.928 10.84,31.504 10.44,31.984 C10.328,32.128 10.168,32.208 9.992,32.208 C9.848,32.208 9.704,32.16 9.56,32.048 C9.384,31.936 9.304,31.76 9.304,31.584 C9.304,31.44 9.352,31.312 9.448,31.184 C10.936,29.392 12.024,27.312 12.68,24.912 C12.744,24.64 12.92,24.512 13.192,24.512 C13.272,24.512 13.352,24.528 13.448,24.544 C13.736,24.608 13.912,24.8 13.912,25.056 C13.912,25.104 13.912,25.168 13.896,25.216 C13.576,26.336 13.128,27.472 12.584,28.56 L12.584,38.912 C12.584,39.2 12.344,39.36 11.976,39.36 C11.608,39.36 11.368,39.2 11.368,38.912 Z M15.752,34.768 C16.008,34.832 16.152,35.024 16.152,35.248 C16.152,35.296 16.152,35.344 16.136,35.392 C15.88,36.384 15.304,37.696 14.824,38.384 C14.712,38.56 14.536,38.656 14.344,38.656 C14.232,38.656 14.12,38.624 13.992,38.56 C13.832,38.464 13.72,38.304 13.72,38.112 C13.72,38 13.752,37.888 13.832,37.776 C14.36,37.104 14.872,35.984 15.112,35.072 C15.176,34.848 15.352,34.736 15.56,34.736 C15.624,34.736 15.688,34.752 15.752,34.768 Z M17.224,34.64 C17.272,34.624 17.304,34.624 17.352,34.624 C17.56,34.624 17.752,34.736 17.816,34.992 C18.024,35.808 18.184,36.848 18.232,37.616 L18.232,37.648 C18.232,37.92 18.056,38.112 17.736,38.144 L17.656,38.144 C17.384,38.144 17.192,37.968 17.176,37.696 C17.144,36.944 17.032,35.968 16.84,35.168 C16.824,35.12 16.824,35.088 16.824,35.056 C16.824,34.816 16.984,34.688 17.224,34.64 Z M19.08,34.448 C19.144,34.432 19.208,34.432 19.256,34.432 C19.432,34.432 19.576,34.512 19.656,34.72 C19.896,35.264 20.136,36.032 20.28,36.624 C20.296,36.672 20.296,36.72 20.296,36.768 C20.296,36.976 20.168,37.152 19.928,37.216 C19.864,37.232 19.816,37.248 19.752,37.248 C19.544,37.248 19.368,37.12 19.32,36.864 C19.208,36.304 19,35.536 18.792,34.96 C18.776,34.896 18.76,34.848 18.76,34.8 C18.76,34.624 18.888,34.496 19.08,34.448 Z M20.888,34.208 C20.952,34.192 21.016,34.176 21.08,34.176 C21.256,34.176 21.384,34.272 21.48,34.416 C21.736,34.864 22.008,35.472 22.168,35.904 C22.184,35.968 22.2,36.032 22.2,36.096 C22.2,36.272 22.104,36.416 21.912,36.496 C21.832,36.528 21.768,36.544 21.688,36.544 C21.528,36.544 21.384,36.448 21.32,36.256 C21.16,35.808 20.92,35.216 20.68,34.752 C20.632,34.688 20.616,34.608 20.616,34.544 C20.616,34.4 20.712,34.272 20.888,34.208 Z M15.08,24.688 C15.192,24.64 15.288,24.608 15.4,24.608 C15.56,24.608 15.72,24.688 15.848,24.832 C16.168,25.2 16.536,25.728 16.744,26.144 C16.792,26.224 16.808,26.304 16.808,26.384 C16.808,26.576 16.696,26.736 16.488,26.848 C16.392,26.896 16.28,26.912 16.184,26.912 C15.992,26.912 15.816,26.816 15.72,26.64 C15.496,26.224 15.176,25.728 14.888,25.392 C14.824,25.312 14.792,25.2 14.792,25.104 C14.792,24.944 14.888,24.784 15.08,24.688 Z"
        id="偽" fill="#FFFFFF" fill-rule="nonzero"></path>
      <path
        d="M43.752,37.472 L43.752,34.848 C43.752,34.608 43.784,34.384 43.864,34.192 C42.824,34.784 41.736,35.344 40.648,35.84 C40.536,35.888 40.44,35.904 40.36,35.904 C40.104,35.904 39.896,35.744 39.784,35.472 C39.736,35.376 39.72,35.28 39.72,35.2 C39.72,34.96 39.864,34.752 40.12,34.656 C42.264,33.824 44.28,32.688 45.992,31.424 C45.368,30.8 44.728,30.288 44.088,29.84 C43.944,29.744 43.864,29.6 43.864,29.456 C43.864,29.328 43.928,29.2 44.04,29.072 C44.152,28.944 44.312,28.88 44.472,28.88 C44.6,28.88 44.712,28.912 44.824,28.976 C45.56,29.456 46.216,30 46.936,30.672 C48.12,29.712 49.112,28.672 49.848,27.648 C49.928,27.536 49.96,27.44 49.96,27.376 C49.96,27.264 49.848,27.2 49.64,27.2 L45.24,27.2 C44.088,28.512 42.664,29.696 41.048,30.704 C40.936,30.768 40.808,30.8 40.696,30.8 C40.488,30.8 40.312,30.688 40.184,30.48 C40.136,30.384 40.104,30.272 40.104,30.176 C40.104,29.968 40.232,29.76 40.44,29.632 C42.552,28.416 44.408,26.688 45.512,24.8 C45.64,24.576 45.832,24.48 46.056,24.48 C46.152,24.48 46.264,24.496 46.376,24.528 C46.616,24.608 46.776,24.784 46.776,24.992 C46.776,25.088 46.744,25.184 46.68,25.296 C46.52,25.552 46.344,25.808 46.152,26.064 L50.328,26.064 C51.096,26.064 51.528,26.464 51.528,27.024 C51.528,27.296 51.416,27.6 51.192,27.92 C49.976,29.664 48.216,31.28 46.2,32.704 C46.488,32.656 46.776,32.64 47.096,32.64 L51.672,32.64 C52.712,32.64 53.16,33.056 53.16,34.016 L53.16,37.472 C53.16,38.432 52.712,38.848 51.672,38.848 L45.24,38.848 C44.2,38.848 43.752,38.432 43.752,37.472 Z M45.48,37.712 L51.384,37.712 C51.72,37.712 51.88,37.616 51.88,37.264 L51.88,34.208 C51.88,33.856 51.72,33.76 51.384,33.76 L45.48,33.76 C45.16,33.76 44.984,33.856 44.984,34.208 L44.984,37.264 C44.984,37.616 45.16,37.712 45.48,37.712 Z"
        id="名" fill="#FFFFFF" fill-rule="nonzero"></path>
    </g>
  </g>
</svg>