<svg width="70px" height="71px" viewBox="0 0 70 71" version="1.1" xmlns="http://www.w3.org/2000/svg"
  xmlns:xlink="http://www.w3.org/1999/xlink">
  <g id="Symbols" stroke="none" stroke-width="1" fill="none" fill-rule="evenodd">
    <g id="Aligle" transform="translate(3.000000, 3.000000)">
      <path
        d="M12.682715,12.5726236 C9.41923039,10.1681256 6.69165872,5.97725105 4.5,-2.84217094e-14 C11.8333333,3.33333333 20.5,5 30.5,5 L35,5 C48.6666667,5 57,25 60,65 C56.6666667,61.6666667 53.3333333,60 50,60 C45,60 45,65 40,65 C35,65 35,60 30,60 C25,60 25,65 20,65 C15,65 15,60 10,60 C6.66666667,60 3.33333333,61.6666667 0,65 C2.14912993,39.2104409 6.3767016,21.7346488 12.682715,12.5726236 Z"
        id="Path-5" stroke="#FFFFFF" stroke-width="6" fill="#FFFFFF" stroke-linejoin="round"></path>
      <path
        d="M54.1529309,46.5314828 L54.1425071,46.5144958 C52.2823296,43.4142 49.8497293,41.5897498 46.8038839,40.9805807 C43.6813989,40.3560837 40.9074725,40.6642977 38.4472136,41.8944272 L37.8075983,42.2142348 L37.2981832,41.7123575 C34.5623215,39.0169778 33.3965172,37.5509824 32.9716871,35.6757269 C32.3671487,33.0072159 33.9762953,30.6949309 37.9473117,28.7388019 C47.6422228,23.9630732 56.898684,23.4269593 62.4777883,28.9235106 C65.3732751,31.7761535 66.3950407,36.7247421 65.8725968,42.5114802 C65.447105,47.224349 63.9810386,51.9079325 62.4777883,53.3889395 C60.5899997,55.2487948 58.0557208,52.7516885 54.1529309,46.5314828 Z M54.1515326,47.6278169 C52.9302515,48.1115202 51.4957934,48.2259935 49.8573018,47.9897662 C46.6346646,47.5251469 42.0339583,45.3328767 38.8417573,42.9938879 L37.6880273,42.1485271 L38.8781234,41.3551803 C41.0364254,39.916404 43.6932149,39.6580457 46.7747211,40.5384761 C49.9170978,41.436298 52.5300062,43.3011278 54.5893947,46.1062963 L55.3561453,47.1507153 L54.1515326,47.6278169 Z"
        id="Path-3-Copy-3" stroke="#FFFFFF" stroke-width="2" fill="#555555"></path>
      <path
        d="M12.682715,12.5726236 C9.41923039,10.1681256 6.69165872,5.97725105 4.5,-2.84217094e-14 C11.8333333,3.33333333 20.5,5 30.5,5 L35,5 C48.6666667,5 57,25 60,65 C56.6666667,61.6666667 53.3333333,60 50,60 C45,60 45,65 40,65 C35,65 35,60 30,60 C25,60 25,65 20,65 C15,65 15,60 10,60 C6.66666667,60 3.33333333,61.6666667 0,65 C2.14912993,39.2104409 6.3767016,21.7346488 12.682715,12.5726236 Z"
        id="Path-5-Copy" stroke="#555555" stroke-width="2" stroke-linejoin="round"></path>
      <path
        d="M28,25 C28.5,26 27,28 25.5,26.5 C24,25 22,19.5 24,18 C26,16.5 45,23 46,22.5 C47,22 44.4194811,19.8051891 44.5,19 C44.5805189,18.1948109 45.1091765,15.5131093 46.5,17.5 C47.8908235,19.4868907 49,22.5 48,24 C47.3333333,25 45.3333333,25 42,24 C41.6666667,26 41,27 40,27 C39,27 38.1666667,25.5 37.5,22.5 C31.7633544,20.4131524 28.0966877,19.579819 26.5,20 C24.1049684,20.6302715 27.5,24 28,25 Z"
        id="Path-18" fill="#555555"></path>
      <path
        d="M12.816,55 L11.296,55 L11.296,54.424 C10.8479978,54.9466693 10.1813378,55.208 9.296,55.208 C8.41066224,55.208 7.70400264,54.8666701 7.176,54.184 C6.64799736,53.5013299 6.384,52.7013379 6.384,51.784 C6.384,50.8666621 6.65333064,50.0853366 7.192,49.44 C7.73066936,48.7946634 8.42132912,48.472 9.264,48.472 C10.1600045,48.472 10.837331,48.738664 11.296,49.272 L11.296,48.68 L12.816,48.68 L12.816,55 Z M11.472,51.832 C11.472,51.2453304 11.3066683,50.7626686 10.976,50.384 C10.6453317,50.0053314 10.2213359,49.816 9.704,49.816 C9.18666408,49.816 8.76533496,49.9999982 8.44,50.368 C8.11466504,50.7360018 7.952,51.223997 7.952,51.832 C7.952,52.440003 8.11733168,52.9306648 8.448,53.304 C8.77866832,53.6773352 9.20533072,53.864 9.728,53.864 C10.2506693,53.864 10.6719984,53.6826685 10.992,53.32 C11.3120016,52.9573315 11.472,52.4613365 11.472,51.832 Z M15.792,55 L14.24,55 L14.24,44.072 L15.792,44.072 L15.792,55 Z M19.088,46.024 C19.088,46.2693346 18.9973342,46.4826658 18.816,46.664 C18.6346658,46.8453342 18.4213346,46.936 18.176,46.936 C17.9306654,46.936 17.7173342,46.8453342 17.536,46.664 C17.3546658,46.4826658 17.264,46.2693346 17.264,46.024 C17.264,45.7786654 17.3546658,45.5653342 17.536,45.384 C17.7173342,45.2026658 17.9306654,45.112 18.176,45.112 C18.4213346,45.112 18.6346658,45.2026658 18.816,45.384 C18.9973342,45.5653342 19.088,45.7786654 19.088,46.024 Z M18.96,55 L17.408,55 L17.408,48.68 L18.96,48.68 L18.96,55 Z"
        id="ali" fill="#555555" fill-rule="nonzero"></path>
    </g>
  </g>
</svg>