<svg width="69px" height="69px" viewBox="0 0 69 69" version="1.1" xmlns="http://www.w3.org/2000/svg"
  xmlns:xlink="http://www.w3.org/1999/xlink">
  <g id="Symbols" stroke="none" stroke-width="1" fill="none" fill-rule="evenodd">
    <g id="Trophy" transform="translate(2.000000, 2.000000)">
      <path
        d="M51.8900457,7.15137735 C61.0705058,3.91825881 66,7.5832306 66,17.5945946 C66,23.3607191 63.24244,28.4572604 57.803315,32.8332443 C55.2050786,34.9236248 50.0668119,37.3073102 42.3328885,40.0375608 L39.2218296,41.1358352 L44.4036092,34.2171547 L44.6070917,34.111861 C53.8513792,29.3283263 58.3777778,24.1395326 58.3777778,18.5945946 C58.3777778,13.1606894 56.8157828,11.2506412 53.4820082,12.0659665 L52.5930518,12.2833744 L50.9564079,7.48018025 L51.8900457,7.15137735 Z M14.0435921,6.48018025 L12.4069482,11.2833744 L11.5179918,11.0659665 C8.18421716,10.2506412 6.62222222,12.1606894 6.62222222,17.5945946 C6.62222222,23.1395326 11.1486208,28.3283263 20.3929083,33.111861 L20.5963908,33.2171547 L25.7781704,40.1358352 L22.6671115,39.0375608 C14.9331881,36.3073102 9.79492143,33.9236248 7.19668499,31.8332443 C1.75755998,27.4572604 -1,22.3607191 -1,16.5945946 C-1,6.5832306 3.92949422,2.91825881 13.1099543,6.15137735 L14.0435921,6.48018025 Z M26.186213,41 L37.8133763,41 L37.979039,41.7963272 C38.5252209,44.4217798 39.0168262,46.3882009 39.4486833,47.6837722 C39.8813279,48.9817061 40.7026934,50.9529833 41.9089615,53.58312 L42.5587898,55 L21.4404797,55 L22.0912161,53.582733 C23.2937971,50.9635797 24.1150495,48.9925739 24.5513167,47.6837722 C24.9867937,46.3773413 25.4783228,44.4112249 26.0208605,41.796811 L26.186213,41 Z"
        id="Path-12-Copy-3" stroke="#FFFFFF" stroke-width="2" fill="#555555"></path>
      <path
        d="M14.6793729,-1 C21.1887218,-1 21.1887218,-1 32.5020183,-1 C34.0104578,-1 34.0104578,-1 35.5075102,-1 C43.8945799,-1 43.8945799,-1 49.3638741,-1 C56.8421068,-1 57.9568043,13.8478502 53.1571549,23.9298389 C47.4835154,35.8477026 38.9780233,46 32.0216235,46 C24.9465346,46 16.0433354,35.156115 11.4411894,23.8778094 C9.67301593,19.5446133 8.75450324,13.5320104 9.05657144,8.50254829 C9.40208356,2.74974103 11.2506222,-1 14.6793729,-1 Z"
        id="Path-11" stroke="#FFFFFF" stroke-width="2" fill="#555555"></path>
      <path
        d="M15.036731,58.0788296 C15.2820091,55.1953393 16.7721615,54 20,54 C21.59375,54 21.59375,54 24.59375,54 C28.0625,54 28.0625,54 32,54 C35.9375,54 35.9375,54 39.40625,54 C42.40625,54 42.40625,54 44,54 C47.2231421,54 48.713651,55.1918635 48.9621905,58.0662544 C54.3152028,58.8331674 53.9944727,66 48,66 C42.0625,66 42.0625,66 31.8125,66 C21.625,66 21.625,66 16,66 C10.5076933,66 10.1866037,58.9080453 15.036731,58.0788296 Z"
        id="Path-14" stroke="#FFFFFF" stroke-width="2" fill="#555555"></path>
      <path
        d="M33.01,32.44 C32.0899954,32.44 31.2100042,32.3100013 30.37,32.05 C29.5299958,31.7899987 28.7600035,31.4000026 28.06,30.88 C27.3599965,30.3599974 26.7500026,29.7250037 26.23,28.975 C25.7099974,28.2249963 25.3000015,27.350005 25,26.35 L28.81,24.85 C29.0900014,25.9300054 29.5799965,26.8249965 30.28,27.535 C30.9800035,28.2450035 31.8999943,28.6 33.04,28.6 C33.4600021,28.6 33.8649981,28.5450005 34.255,28.435 C34.645002,28.3249994 34.9949985,28.1650011 35.305,27.955 C35.6150016,27.744999 35.8599991,27.4800016 36.04,27.16 C36.2200009,26.8399984 36.31,26.4700021 36.31,26.05 C36.31,25.649998 36.2400007,25.2900016 36.1,24.97 C35.9599993,24.6499984 35.7250017,24.3500014 35.395,24.07 C35.0649984,23.7899986 34.6350027,23.5200013 34.105,23.26 C33.5749974,22.9999987 32.9200039,22.7300014 32.14,22.45 L30.82,21.97 C30.2399971,21.769999 29.655003,21.5000017 29.065,21.16 C28.4749971,20.8199983 27.9400024,20.4100024 27.46,19.93 C26.9799976,19.4499976 26.5850016,18.8850032 26.275,18.235 C25.9649985,17.5849968 25.81,16.8500041 25.81,16.03 C25.81,15.1899958 25.9749984,14.4050037 26.305,13.675 C26.6350017,12.9449964 27.104997,12.3050027 27.715,11.755 C28.3250031,11.2049973 29.0549958,10.7750016 29.905,10.465 C30.7550043,10.1549984 31.6999948,10 32.74,10 C33.8200054,10 34.7549961,10.1449986 35.545,10.435 C36.335004,10.7250014 37.0049973,11.0949978 37.555,11.545 C38.1050028,11.9950023 38.5499983,12.4899973 38.89,13.03 C39.2300017,13.5700027 39.4799992,14.0799976 39.64,14.56 L36.07,16.06 C35.869999,15.459997 35.5050027,14.9200024 34.975,14.44 C34.4449974,13.9599976 33.7200046,13.72 32.8,13.72 C31.9199956,13.72 31.1900029,13.9249979 30.61,14.335 C30.0299971,14.7450021 29.74,15.2799967 29.74,15.94 C29.74,16.5800032 30.0199972,17.1249977 30.58,17.575 C31.1400028,18.0250023 32.0299939,18.4599979 33.25,18.88 L34.6,19.33 C35.4600043,19.6300015 36.2449965,19.974998 36.955,20.365 C37.6650036,20.755002 38.2749975,21.2199973 38.785,21.76 C39.2950026,22.3000027 39.6849987,22.9149965 39.955,23.605 C40.2250014,24.2950034 40.36,25.0899955 40.36,25.99 C40.36,27.1100056 40.1350023,28.074996 39.685,28.885 C39.2349978,29.6950041 38.6600035,30.3599974 37.96,30.88 C37.2599965,31.4000026 36.4700044,31.7899987 35.59,32.05 C34.7099956,32.3100013 33.8500042,32.44 33.01,32.44 Z"
        id="S" fill="#FFFFFF" fill-rule="nonzero"></path>
    </g>
  </g>
</svg>