<svg width="64px" height="72px" viewBox="0 0 64 72" version="1.1" xmlns="http://www.w3.org/2000/svg"
  xmlns:xlink="http://www.w3.org/1999/xlink">
  <g id="Symbols" stroke="none" stroke-width="1" fill="none" fill-rule="evenodd">
    <g id="notes" transform="translate(4.000000, 4.000000)">
      <path d="M58,17.1715729 L58,66 L-2,66 L-2,-2 L38.8284271,-2 L58,17.1715729 Z" id="Rectangle-2" stroke="#FFFFFF"
        stroke-width="4" fill="#FFFFFF" stroke-linejoin="round"></path>
      <path d="M39,17 L57,17 L57,65 L-1,65 L-1,-1 L39,-1 L39,17 Z" id="Rectangle-Copy-14" stroke="#555555"
        stroke-width="2" fill="#FFFFFF" stroke-linejoin="round"></path>
      <path d="M37,-2.41421356 L58.4142136,19 L37,19 L37,-2.41421356 Z" id="Rectangle-Copy-13" stroke="#555555"
        stroke-width="2" fill="#FFFFFF" stroke-linejoin="round"></path>
      <path
        d="M6,12 L30,12 C31.1045695,12 32,12.8954305 32,14 C32,15.1045695 31.1045695,16 30,16 L6,16 C4.8954305,16 4,15.1045695 4,14 C4,12.8954305 4.8954305,12 6,12 Z M6,4 L30,4 C31.1045695,4 32,4.8954305 32,6 C32,7.1045695 31.1045695,8 30,8 L6,8 C4.8954305,8 4,7.1045695 4,6 C4,4.8954305 4.8954305,4 6,4 Z M6,20 L30,20 C31.1045695,20 32,20.8954305 32,22 C32,23.1045695 31.1045695,24 30,24 L6,24 C4.8954305,24 4,23.1045695 4,22 C4,20.8954305 4.8954305,20 6,20 Z M6,28 L50,28 C51.1045695,28 52,28.8954305 52,30 C52,31.1045695 51.1045695,32 50,32 L6,32 C4.8954305,32 4,31.1045695 4,30 C4,28.8954305 4.8954305,28 6,28 Z M6,36 L50,36 C51.1045695,36 52,36.8954305 52,38 C52,39.1045695 51.1045695,40 50,40 L6,40 C4.8954305,40 4,39.1045695 4,38 C4,36.8954305 4.8954305,36 6,36 Z M6,44 L50,44 C51.1045695,44 52,44.8954305 52,46 C52,47.1045695 51.1045695,48 50,48 L6,48 C4.8954305,48 4,47.1045695 4,46 C4,44.8954305 4.8954305,44 6,44 Z M6,52 L50,52 C51.1045695,52 52,52.8954305 52,54 C52,55.1045695 51.1045695,56 50,56 L6,56 C4.8954305,56 4,55.1045695 4,54 C4,52.8954305 4.8954305,52 6,52 Z"
        id="Rectangle-Copy-7" fill="#555555"></path>
    </g>
  </g>
</svg>