<svg width="64px" height="68px" viewBox="0 0 64 68" version="1.1" xmlns="http://www.w3.org/2000/svg"
  xmlns:xlink="http://www.w3.org/1999/xlink">
  <g id="Symbols" stroke="none" stroke-width="1" fill="none" fill-rule="evenodd">
    <g id="pafiume" transform="translate(2.000000, 2.000000)" stroke="#FFFFFF" stroke-width="2">
      <path
        d="M8.1707659,37.7536791 L16.5,23.7254954 C16.5,23.38501 16.5,23.2463183 16.5,22.5 C16.5,21.2910054 17.3781912,20.1454432 18.5,19.697887 C18.5,18.9876621 18.5,17.8922735 18.5,14 L18.5,13 L19.5,13 C22.6549652,13 23.8191693,13 24.5,13 C24.5,12.9197865 24.5,12.830603 24.5,12.7309946 C24.5,11.9171033 24.5,11.9171033 24.5,11.5 C24.5,9.78393342 25.5699445,8.5 27.5,8.5 C28.6975309,8.5 28.6975309,8.5 30.2901235,8.5 C32.2808642,8.5 32.2808642,8.5 33.5,8.5 C35.0522847,8.5 36.5,9.94771525 36.5,11.5 C36.5,12.3092932 36.5,12.5140121 36.5,13.1564055 C37.6265984,13.3122736 38.523244,13.2714928 39.1837722,13.0513167 C39.8381192,12.8332011 40.5747845,12.5369124 41.3923673,12.1624379 C40.4706093,10.9045308 40,9.5099975 40,8 C40,2.52700496 44.328597,-1 50.5,-1 C56.4655534,-1 61,2.86267676 61,8 C61,12.722995 56.3645848,16.5 50.5,16.5 C48.5102703,16.5 46.6609805,16.0429874 44.9669513,15.1313386 C43.116899,16.0312253 41.545504,16.6444004 40.2425356,16.9701425 C39.0916733,17.2578581 37.8432351,17.3226888 36.5,17.1694872 L36.5,19.5 C39.4304974,19.5 39.5646484,19.5 41,19.5 C42.5522847,19.5 44,20.9477153 44,22.5 C44,23.2462431 44,23.3849821 44,23.7254954 L52.4288545,37.9214608 C53.1435874,39.1252214 53.5,40.4911506 53.5,42 C53.5,42.7133781 53.5,42.7133781 53.5,44.1317052 C53.5,45.8282253 53.5,45.8282253 53.5,47.9325679 C53.5,49.874624 53.5,49.874624 53.5,51.9153739 C53.5,55.5726407 53.5,55.5726407 53.5,58.6618524 C53.5,61.1830089 53.5,61.1830089 53.5,62 C53.5,63.5522847 52.0522847,65 50.5,65 C50.0195312,65 50.0195312,65 48.5136719,65 C46.5683594,65 46.5683594,65 43.890625,65 C37.65625,65 37.65625,65 30.25,65 C22.84375,65 22.84375,65 16.609375,65 C13.9316406,65 13.9316406,65 11.9863281,65 C10.4804687,65 10.4804687,65 10,65 C8.44771525,65 7,63.5522847 7,62 C7,61.4529342 7,61.4529342 7,59.8107162 C7,57.5554109 7,57.5554109 7,53.9429093 C7,48.9874875 7,48.9874875 7,41.960459 C7,40.1472807 7.37325461,38.738245 8.1707659,37.7536791 Z"
        id="Path-17-Copy" fill="#FFFFFF"></path>
      <path
        d="M8.1707659,37.7536791 L16.5,23.7254954 C16.5,23.38501 16.5,23.2463183 16.5,22.5 C16.5,20.9477153 17.9477153,19.5 19.5,19.5 C21.0272495,19.5 21.1550044,19.5 24.5,19.5 C24.5,16.7666675 24.5,16.5395959 24.5,14.25 C24.5,12.2916667 24.5,12.2916667 24.5,11.5 C24.5,9.78393342 25.5699445,8.5 27.5,8.5 C28.6975309,8.5 28.6975309,8.5 30.2901235,8.5 C32.2808642,8.5 32.2808642,8.5 33.5,8.5 C35.0522847,8.5 36.5,9.94771525 36.5,11.5 C36.5,12.3092932 36.5,12.5140121 36.5,13.1564055 C37.6265984,13.3122736 38.523244,13.2714928 39.1837722,13.0513167 C39.8381192,12.8332011 40.5747845,12.5369124 41.3923673,12.1624379 C40.4706093,10.9045308 40,9.5099975 40,8 C40,2.52700496 44.328597,-1 50.5,-1 C56.4655534,-1 61,2.86267676 61,8 C61,12.722995 56.3645848,16.5 50.5,16.5 C48.5102703,16.5 46.6609805,16.0429874 44.9669513,15.1313386 C43.116899,16.0312253 41.545504,16.6444004 40.2425356,16.9701425 C39.0916733,17.2578581 37.8432351,17.3226888 36.5,17.1694872 L36.5,19.5 C39.4304974,19.5 39.5646484,19.5 41,19.5 C42.5522847,19.5 44,20.9477153 44,22.5 C44,23.2462431 44,23.3849821 44,23.7254954 L52.4288545,37.9214608 C53.1435874,39.1252214 53.5,40.4911506 53.5,42 C53.5,42.7133781 53.5,42.7133781 53.5,44.1317052 C53.5,45.8282253 53.5,45.8282253 53.5,47.9325679 C53.5,49.874624 53.5,49.874624 53.5,51.9153739 C53.5,55.5726407 53.5,55.5726407 53.5,58.6618524 C53.5,61.1830089 53.5,61.1830089 53.5,62 C53.5,63.5522847 52.0522847,65 50.5,65 C50.0195312,65 50.0195312,65 48.5136719,65 C46.5683594,65 46.5683594,65 43.890625,65 C37.65625,65 37.65625,65 30.25,65 C22.84375,65 22.84375,65 16.609375,65 C13.9316406,65 13.9316406,65 11.9863281,65 C10.4804687,65 10.4804687,65 10,65 C8.44771525,65 7,63.5522847 7,62 C7,61.4529342 7,61.4529342 7,59.8107162 C7,57.5554109 7,57.5554109 7,53.9429093 C7,48.9874875 7,48.9874875 7,41.960459 C7,40.1472807 7.37325461,38.738245 8.1707659,37.7536791 Z M28.5,19.5 L32.5,19.5 C32.5,17.0153329 32.5,16.7960078 32.5,14.75 C32.5,13.0416667 32.5,13.0416667 32.5,12.5 C32.5,12.5522847 32.4477153,12.5 32.5,12.5 C31.8125,12.5 31.8125,12.5 30.5,12.5 C29.1875,12.5 29.1875,12.5 28.5,12.5 C28.5522847,12.5 28.5,12.5522847 28.5,12.5 C28.5,13.0416667 28.5,13.0416667 28.5,14.75 C28.5,16.7960078 28.5,17.0153329 28.5,19.4999726 Z M40,23.5 L40,24 L41,24 L41,23 L19.5,23 L19.5,24 L20.5,24 L20.5,23.5 C20.5,23.3856181 20.3856181,23.5 20.5,23.5 C20.9456549,23.5 20.9456549,23.5 22.1939736,23.5 C23.8231023,23.5 23.8231023,23.5 26.1728071,23.5 C31.8915148,23.5 31.8915148,23.5 40,23.5 C40.1143819,23.5 40,23.3856181 40,23.5 Z M26,61 L26,43 L11,43 C11,50.5091765 11,50.7246572 11,56 C11,60 11,60 11,61 C11,60.9477153 11.0522847,61 11,61 C11.875,61 11.875,61 15.25,61 C19.6477625,61 19.8638353,61 26,61 Z M30,43 L30,61 C38.1959259,61 38.4111712,61 44.125,61 C48.4375,61 48.4375,61 49.5,61 C49.4477153,61 49.5,60.9477153 49.5,61 C49.5,60 49.5,60 49.5,56 C49.5,50.724657 49.5,50.5091765 49.5,43 L30,43 Z M29.0803225,39 L48.2229758,39 L40.9372615,27 L22.2231797,27 L29.0803225,39 Z M15.3027756,39 L24.7768203,39 L22.1632908,34.4263233 L15.3027756,39 Z M18.5065589,28.4545822 L14.9681759,34.4426149 L20.1396588,31.1764152 L18.5065589,28.4545822 Z"
        id="Path-18" fill="#555555"></path>
      <path
        d="M1.5,4 C0.119288125,4 -1,2.88071187 -1,1.5 C-1,0.119288125 0.119288125,-1 1.5,-1 C2.88071187,-1 4,0.119288125 4,1.5 C4,2.88071187 2.88071187,4 1.5,4 Z M1.5,10 C0.119288125,10 -1,8.88071187 -1,7.5 C-1,6.11928813 0.119288125,5 1.5,5 C2.88071187,5 4,6.11928813 4,7.5 C4,8.88071187 2.88071187,10 1.5,10 Z M1.5,16 C0.119288125,16 -1,14.8807119 -1,13.5 C-1,12.1192881 0.119288125,11 1.5,11 C2.88071187,11 4,12.1192881 4,13.5 C4,14.8807119 2.88071187,16 1.5,16 Z M1.5,22 C0.119288125,22 -1,20.8807119 -1,19.5 C-1,18.1192881 0.119288125,17 1.5,17 C2.88071187,17 4,18.1192881 4,19.5 C4,20.8807119 2.88071187,22 1.5,22 Z M1.5,28 C0.119288125,28 -1,26.8807119 -1,25.5 C-1,24.1192881 0.119288125,23 1.5,23 C2.88071187,23 4,24.1192881 4,25.5 C4,26.8807119 2.88071187,28 1.5,28 Z M6.5,7 C5.11928813,7 4,5.88071187 4,4.5 C4,3.11928813 5.11928813,2 6.5,2 C7.88071187,2 9,3.11928813 9,4.5 C9,5.88071187 7.88071187,7 6.5,7 Z M6.5,13 C5.11928813,13 4,11.8807119 4,10.5 C4,9.11928813 5.11928813,8 6.5,8 C7.88071187,8 9,9.11928813 9,10.5 C9,11.8807119 7.88071187,13 6.5,13 Z M6.5,19 C5.11928813,19 4,17.8807119 4,16.5 C4,15.1192881 5.11928813,14 6.5,14 C7.88071187,14 9,15.1192881 9,16.5 C9,17.8807119 7.88071187,19 6.5,19 Z M6.5,25 C5.11928813,25 4,23.8807119 4,22.5 C4,21.1192881 5.11928813,20 6.5,20 C7.88071187,20 9,21.1192881 9,22.5 C9,23.8807119 7.88071187,25 6.5,25 Z M11.5,10 C10.1192881,10 9,8.88071187 9,7.5 C9,6.11928813 10.1192881,5 11.5,5 C12.8807119,5 14,6.11928813 14,7.5 C14,8.88071187 12.8807119,10 11.5,10 Z M11.5,16 C10.1192881,16 9,14.8807119 9,13.5 C9,12.1192881 10.1192881,11 11.5,11 C12.8807119,11 14,12.1192881 14,13.5 C14,14.8807119 12.8807119,16 11.5,16 Z M11.5,22 C10.1192881,22 9,20.8807119 9,19.5 C9,18.1192881 10.1192881,17 11.5,17 C12.8807119,17 14,18.1192881 14,19.5 C14,20.8807119 12.8807119,22 11.5,22 Z M16.5,13 C15.1192881,13 14,11.8807119 14,10.5 C14,9.11928813 15.1192881,8 16.5,8 C17.8807119,8 19,9.11928813 19,10.5 C19,11.8807119 17.8807119,13 16.5,13 Z M16.5,19 C15.1192881,19 14,17.8807119 14,16.5 C14,15.1192881 15.1192881,14 16.5,14 C17.8807119,14 19,15.1192881 19,16.5 C19,17.8807119 17.8807119,19 16.5,19 Z M21.5,16 C20.1192881,16 19,14.8807119 19,13.5 C19,12.1192881 20.1192881,11 21.5,11 C22.8807119,11 24,12.1192881 24,13.5 C24,14.8807119 22.8807119,16 21.5,16 Z"
        id="Oval-Copy-15" fill="#555555"></path>
    </g>
  </g>
</svg>