<svg width="69px" height="69px" viewBox="0 0 69 69" version="1.1" xmlns="http://www.w3.org/2000/svg"
  xmlns:xlink="http://www.w3.org/1999/xlink">
  <g id="Symbols" stroke="none" stroke-width="1" fill="none" fill-rule="evenodd">
    <g id="Tada" transform="translate(2.000000, 2.000000)">
      <path
        d="M58,37 C56.3431458,37 55,35.6568542 55,34 C55,32.3431458 56.3431458,31 58,31 C59.6568542,31 61,32.3431458 61,34 C61,35.6568542 59.6568542,37 58,37 Z M52,25 C50.3431458,25 49,23.6568542 49,22 C49,20.3431458 50.3431458,19 52,19 C53.6568542,19 55,20.3431458 55,22 C55,23.6568542 53.6568542,25 52,25 Z M46,21 C44.3431458,21 43,19.6568542 43,18 C43,16.3431458 44.3431458,15 46,15 C47.6568542,15 49,16.3431458 49,18 C49,19.6568542 47.6568542,21 46,21 Z M58,18 C56.3431458,18 55,16.6568542 55,15 C55,13.3431458 56.3431458,12 58,12 C59.6568542,12 61,13.3431458 61,15 C61,16.6568542 59.6568542,18 58,18 Z M50,9 C48.3431458,9 47,7.65685425 47,6 C47,4.34314575 48.3431458,3 50,3 C51.6568542,3 53,4.34314575 53,6 C53,7.65685425 51.6568542,9 50,9 Z M60,8 C58.3431458,8 57,6.65685425 57,5 C57,3.34314575 58.3431458,2 60,2 C61.6568542,2 63,3.34314575 63,5 C63,6.65685425 61.6568542,8 60,8 Z M42,57 C40.3431458,57 39,55.6568542 39,54 C39,52.3431458 40.3431458,51 42,51 C43.6568542,51 45,52.3431458 45,54 C45,55.6568542 43.6568542,57 42,57 Z M50,62 C48.3431458,62 47,60.6568542 47,59 C47,57.3431458 48.3431458,56 50,56 C51.6568542,56 53,57.3431458 53,59 C53,60.6568542 51.6568542,62 50,62 Z M41,64 C39.3431458,64 38,62.6568542 38,61 C38,59.3431458 39.3431458,58 41,58 C42.6568542,58 44,59.3431458 44,61 C44,62.6568542 42.6568542,64 41,64 Z M3,39 C1.34314575,39 0,37.6568542 0,36 C0,34.3431458 1.34314575,33 3,33 C4.65685425,33 6,34.3431458 6,36 C6,37.6568542 4.65685425,39 3,39 Z M7,35 C5.34314575,35 4,33.6568542 4,32 C4,30.3431458 5.34314575,29 7,29 C8.65685425,29 10,30.3431458 10,32 C10,33.6568542 8.65685425,35 7,35 Z M3,28 C1.34314575,28 0,26.6568542 0,25 C0,23.3431458 1.34314575,22 3,22 C4.65685425,22 6,23.3431458 6,25 C6,26.6568542 4.65685425,28 3,28 Z"
        id="Oval-Copy-12" stroke="#FFFFFF" stroke-width="2" fill="#555555"></path>
      <path
        d="M7.13895942,65.6273933 C5.13565451,66.4288149 2.51818802,65.8519919 1.01087866,64.6131589 C-0.28085935,63.5515005 -1,61.7399266 -1,59.615532 C-1,56.619183 5.81603836,41.60295 19.8105956,13.5535558 L21.7993512,9.56747832 L21.7051836,14.0211391 C21.6058975,18.716883 24.8237656,24.712045 31.430698,31.9325582 C38.0149823,39.1283199 44.8561296,42.6255811 51.9824022,42.5001549 L56.6382409,42.4182096 L52.4265498,44.4044641 C23.4044451,58.0914332 8.40868314,65.1194407 7.13895942,65.6273933 Z"
        id="Line-2-Copy-2" stroke="#FFFFFF" stroke-width="2" fill="#555555" stroke-linecap="square"
        stroke-linejoin="round"></path>
      <path
        d="M39.3784694,18.4744585 C40.4839413,19.480908 41.6030144,20.5956151 42.7348034,21.8217199 C44.8898438,24.1563469 46.7262521,26.3093026 48.2589617,28.2876867 C49.1363712,27.9855952 49.9766458,27.7295864 50.7521668,27.5311973 C54.7573369,26.5066189 60.1365112,26.0074983 62.6961161,26.5194193 C64.2945623,26.8391086 65.310748,27.9423959 65.1825372,29.2245037 C65.0486506,30.5633697 63.7408405,31.3409865 62.2574644,30.9701425 C60.3195338,30.4856599 55.2681559,30.6943612 52.2483754,31.4686639 C51.8021193,31.5830885 51.3351236,31.7259955 50.8469776,31.8962953 C54.5072493,37.5020401 55.1401673,41.3459609 53.2748198,43.6321821 C52.7952192,44.2199938 51.7035557,44.7658256 49.8403805,45.4402878 L49.6532234,45.5080379 L20.3065149,44.168087 L20.2438223,43.2801587 C19.1003171,27.0844583 18.6879998,18.046604 19.0106587,15.8543851 C19.106469,15.2034274 19.9400732,13.218195 20.2243461,12.8688415 C21.086183,11.8096985 23.2654855,11.145818 25.8102047,11.3530802 C27.1742739,11.4641808 28.6198394,11.805588 30.1350189,12.3938203 C29.4132637,11.5537849 29.2097125,10.7085849 29.5513167,9.68377223 C30.0902361,8.06701399 31.3998302,7.36772537 33.9400095,6.72371467 C34.1264132,6.6764558 34.3203318,6.62866678 34.687276,6.53860276 C36.0041265,6.21351059 36.6377859,5.97373881 36.8787868,5.74353115 C36.8727848,5.73988442 36.8666904,5.73620464 36.8605042,5.73249293 C36.5102894,5.52236402 35.955935,5.26207892 35.2082125,4.96045194 C33.1923874,4.53095316 32.2138272,4.02158569 32.5298575,2.75746437 C32.9018789,1.26937875 34.0571096,0.483500982 36.2425356,1.0298575 C39.2932219,1.79252907 41.545494,3.87154947 40.9805807,6.69611614 C40.6695109,8.25146506 39.2553813,9.03442464 36.5436951,9.830395 C36.2191168,9.92566957 34.7971202,10.3186786 34.4656037,10.4189563 C34.1635243,10.5103297 33.9209212,10.5925281 33.7330134,10.6671829 C34.0725101,10.9651042 34.8209889,11.4845494 36.3018203,12.4502588 C39.1141001,14.2842588 40.2608767,15.4262424 39.987763,17.1559626 C39.9093892,17.6523297 39.6995081,18.0898582 39.3784694,18.4744585 Z M47.5554986,30.6718219 C45.1442863,31.5958744 42.7989735,32.7330546 42.1305926,33.276114 C41.9685905,33.4077407 41.9183433,33.6378081 41.9781444,33.754791 C41.9827548,33.7638099 41.9734776,33.7564244 41.9832548,33.7585871 C42.0808206,33.7801684 42.2707365,33.7465978 42.5527864,33.6055728 C42.7622974,33.5008173 45.3387596,32.1484017 46.2764084,31.6868947 C46.7966173,31.4308499 47.295397,31.1950068 47.7797077,30.9774496 C47.7059044,30.8761397 47.631169,30.7742641 47.5554986,30.6718219 Z M35.9831835,18.2038924 C35.6812535,18.3038757 35.3473644,18.4006384 34.9804518,18.495499 C34.4274301,18.6384757 32.5219532,19.0556989 32.1918716,19.1420131 C31.4696484,19.3308699 31.0644044,19.4925483 30.7600599,19.8273272 C30.5966257,20.0071048 30.4899691,20.1936985 30.432568,20.3798835 C30.7293325,19.9119404 31.6530075,19.5164054 33.3991657,19.1031476 C33.6280819,19.0489707 34.4855224,18.8530782 34.3991378,18.8729923 C35.2012913,18.6880728 35.7557576,18.5419942 36.2006728,18.3784892 C36.5330031,18.6473174 36.8673308,18.927095 37.2036108,19.2179457 L37.8577807,18.461598 L37.3316136,17.6112168 C37.1562469,17.7197237 36.9547629,17.8233152 36.7262971,17.9230625 L36.3516241,17.220667 L35.7353284,18.0081818 C35.8178212,18.0727393 35.9004398,18.1379755 35.9831835,18.2038924 Z M30.5924266,21.3951378 C30.7213972,21.5915658 30.9041614,21.7659789 31.1262858,21.9045141 C31.1409574,21.9136646 31.1557081,21.9226764 31.1705617,21.9315623 C30.9222021,21.7446429 30.7304553,21.5658917 30.5924266,21.3951378 Z M33.2170034,22.6870578 C33.2687746,22.7069813 33.3092286,22.7242812 33.3379409,22.7385553 C33.3111727,22.7252477 33.2662362,22.6931957 33.1862665,22.5812382 C33.1932425,22.5910046 33.2051992,22.6308741 33.2170034,22.6870578 Z M33.2510452,22.9601553 C33.2524646,23.0006524 33.2518981,23.0406554 33.2485464,23.0780172 C33.2436057,23.1330934 33.347072,23 33.5,23 C33.4392111,23 33.3541336,22.9860879 33.2510452,22.9601553 Z"
        id="Path-7" stroke="#FFFFFF" stroke-width="2" fill="#555555" stroke-linejoin="round"></path>
      <path
        d="M60.2946113,55.7394225 C60.1968055,55.6526458 60.0686081,55.552294 59.9107119,55.4404477 C59.6547748,55.2591541 59.3385553,55.0586512 58.8956542,54.7934227 C58.7201346,54.6883139 57.8788109,54.1927059 57.6437609,54.0516885 C54.6304499,52.2438626 53.3552058,50.9539566 53.9955512,49.0329204 C54.5344706,47.4161621 55.8440647,46.7168735 58.3842439,46.0728628 C58.5706477,46.0256039 58.7645662,45.9778149 59.1315104,45.8877509 C60.448361,45.5626587 61.0820204,45.3228869 61.3230212,45.0926793 C61.3170192,45.0890326 61.3109249,45.0853528 61.3047387,45.0816411 C60.9545239,44.8715122 60.4001694,44.6112271 59.652447,44.3096001 C57.6366218,43.8801013 56.6580616,43.3707338 56.974092,42.1066125 C57.3461134,40.6185269 58.501344,39.8326491 60.6867701,40.3790056 C63.7374564,41.1416772 65.9897285,43.2206976 65.4248151,46.0452643 C65.1137454,47.6006132 63.6996157,48.3835728 60.9879296,49.1795431 C60.6633512,49.2748177 59.2413546,49.6678268 58.9098382,49.7681044 C58.6077587,49.8594778 58.3651557,49.9416762 58.1772479,50.016331 C58.5167446,50.3142523 59.2652233,50.8336976 60.7460548,51.7994069 C63.5583346,53.6334069 64.7051111,54.7753906 64.4319974,56.5051107 C64.1637254,58.2041667 62.6098073,59.0869352 59.9253004,59.7809801 C59.6108326,59.8622818 58.9420793,60.0146595 58.3350094,60.1521152 C58.7821202,60.3159096 59.0411824,60.4644102 59.2579679,60.7679099 C59.5774764,61.2152219 59.7426699,61.9605614 59.6847818,62.6058622 C59.5973372,63.5806398 58.999902,64.3491481 57.9442345,64.3491481 C57.1309738,64.3491481 55.6447624,63.7602478 54.5725641,62.9961605 C53.0189508,61.8889995 52.2796188,60.4423114 53.0498073,58.9019345 C53.6762428,57.6490636 54.9445969,57.0830983 57.3827903,56.5060587 C57.5349631,56.4700444 57.6884666,56.43454 57.897143,56.3868654 C58.1492172,56.3294071 58.2773011,56.3001806 58.394098,56.2732555 C59.4082903,56.0394549 60.023532,55.8349875 60.2946113,55.7394225 Z"
        id="Path-8-Copy" stroke="#FFFFFF" stroke-width="2" fill="#555555" stroke-linejoin="round"
        transform="translate(59.132261, 52.278583) scale(-1, -1) rotate(-22.000000) translate(-59.132261, -52.278583) ">
      </path>
      <path
        d="M6.76752893,64.6989326 C4.90985882,65.442093 2.6629585,64.6765681 1.64582801,63.8406051 C0.628697509,63.0046422 0,61.5 0,59.615532 C0,56.871844 6.90180237,41.6666667 20.7054071,14 C20.5994226,19.0125434 23.9286002,25.2150846 30.69294,32.6076234 C37.4572797,40.0001623 44.5596331,43.6309545 52,43.5 C23.083466,57.1371814 8.00597566,64.2034923 6.76752893,64.6989326 Z"
        id="Line-2-Copy-4" fill="#555555"></path>
      <path
        d="M7.5,62.5 C5.96384972,63.1145365 3.84108868,63.1912771 3,62.5 C2.15891132,61.8087229 1.27805368,61.0123791 1.63902684,59.0061896 C2.21300895,56.3353965 8.70725965,42.9935897 21.1217789,18.9807692 C21.0341379,23.1257571 23.7871117,28.2547815 29.3807004,34.3678425 C34.974289,40.4809034 40.8473889,43.4832893 47,43.375 C21.6907669,55.715309 8.52410019,62.090309 7.5,62.5 Z"
        id="Line-2-Copy-3" fill="#FFFFFF"></path>
      <path
        d="M16.6157102,25.7769604 C20.2544545,30.8697524 24.0492177,35.2774322 27,38 C29.8719857,40.6498654 35.0204008,43.6167603 41.4452452,47.9006847 C43.168964,49.0500169 40.4557482,49.4114138 39,48.5 C33.0405773,44.7689291 27.9494739,41.7190462 25,39 C22.3249122,36.5339034 19.1202589,32.8545884 15.3860401,27.9620551 C13.997272,26.1425061 15.7627098,24.5830997 16.6157102,25.7769604 Z M18.198758,19.6129089 C19.8975161,21.7258179 24.1101263,28.197846 31,34.5 C37.8898737,40.802154 45.7857423,44.8622699 46.5,45.5 C47.2142577,46.1377301 47,48 45,47 C43,46 35.8936565,42.1550504 29,36 C22.1063435,29.8449496 21.4278707,27.9676136 17,22 C16.1009396,20.7883014 16.5,17.5 18.198758,19.6129089 Z M13.3847358,32.5097276 C15.9448268,35.8220238 18.3165816,38.4854479 20.5,40.5 C23.3814896,43.1586342 28.0511849,46.6397142 34.5090861,50.9432401 C36.2146594,52.079829 33.7230721,52.5280663 32.2278201,51.590251 C26.3363461,47.8951455 21.9270727,44.6983951 19,42 C17.0831785,40.2329302 14.8944585,37.8429491 12.4338399,34.8300567 C10.1833385,32.0744412 11.6739295,30.2962527 13.3847358,32.5097276 Z M10.0791038,40.640769 C11.9993888,42.9842644 13.2372287,44.4122322 15.5,46.5 C17.7627713,48.5877678 21.1282611,51.1827066 25.5964695,54.2848166 C28.3209863,56.1763467 26.0471041,56.8769738 23.5679735,55.232672 C19.4749194,52.5179235 16.2855949,50.1070328 14,48 C12.5298571,46.6447121 10.8997723,44.9230018 9.10974532,42.8348691 C6.43127433,39.7103337 7.86944805,37.9441288 10.0791038,40.640769 Z M5.61375552,49.4582084 C6.96943967,51.0131172 7.80787734,51.9387467 9.5,53.5 C11.1921227,55.0612533 13.5009071,56.9061266 16.4263535,59.03462 C19.5064253,61.2756157 17.5533028,61.9238155 14.7073325,60.2356943 C14.4376391,60.0757224 14.1599278,59.8947702 13.8777221,59.6922049 C11.505082,57.9891408 9.78351094,56.5647898 8,55 C6.21648906,53.4352102 5.87747229,52.9373533 4.70013738,51.6401147 C1.65208022,48.2816333 2.97145525,46.4276088 5.61375552,49.4582084 Z"
        id="Path-5-Copy-5" fill="#555555"></path>
      <path
        d="M10.40382,3.02173062 C10.1413602,3.10756297 9.99134321,3.47679889 9.73776429,4.63148861 C9.71044877,4.7560368 9.71044877,4.7560368 9.68224972,4.88359712 C9.45375624,5.91181782 9.26424043,6.49328676 8.88996481,7.0547002 C8.17976532,8.11999942 7.08986063,8.51752806 6.12448925,8.06403413 C5.22813703,7.64296272 4.75853521,6.59270854 5.12456891,5.64102092 C5.16057191,5.54741311 5.42139568,4.71622691 5.47974584,4.53875259 C5.70635095,3.84952421 5.93546599,3.24230088 6.2052153,2.65455107 C7.24099285,0.397722103 8.61601149,-1 10.5579145,-1 C13.8102714,-1 16.1062376,3.54069075 16.5527062,7.89807103 C17.0344283,12.5995135 16.5157589,16.8727167 15.3414177,20.7232928 C14.8853529,22.2186951 13.8368531,24.8254619 14.0065978,24.3162278 C13.5932697,25.5562121 12.5502065,26.2381762 11.5194329,25.5555536 C10.804978,25.0824108 10.4758448,24.0709545 10.5606468,22.9261283 C10.5969306,22.4362968 10.7387371,21.8864565 11.031908,20.9811991 C11.0838762,20.8207309 11.1392928,20.6527636 11.2182522,20.4156137 C11.3170695,20.1192994 11.3710286,19.9574125 11.4201602,19.8091258 C11.5900076,19.2964997 11.7210612,18.8886376 11.8485116,18.4701643 C12.6359104,15.8848031 13.0579145,13.5534354 13.0579145,11 C13.0579145,9.05563406 12.5573942,6.97105407 11.7506448,5.1862323 C11.4142318,4.44196483 11.0458159,3.80505231 10.7102823,3.36871706 C10.5941403,3.2176834 10.4888131,3.10010202 10.40382,3.02173062 Z"
        id="Path-9" stroke="#FFFFFF" stroke-width="2" fill="#555555"></path>
    </g>
  </g>
</svg>