<svg width="68px" height="68px" viewBox="0 0 68 68" version="1.1" xmlns="http://www.w3.org/2000/svg"
  xmlns:xlink="http://www.w3.org/1999/xlink">
  <g id="Symbols" stroke="none" stroke-width="1" fill="none" fill-rule="evenodd">
    <g id="DevFest-Copy" transform="translate(2.000000, 2.000000)">
      <rect id="Rectangle" stroke="#FFFFFF" stroke-width="2" fill="#555555" x="-1" y="-1" width="66" height="66" rx="2">
      </rect>
      <path
        d="M7.132,57 L7.132,41.4 L11.74,41.4 C12.9240059,41.4 14.0079951,41.5439986 14.992,41.832 C15.9760049,42.1200014 16.8199965,42.5759969 17.524,43.2 C18.2280035,43.8240031 18.775998,44.6239951 19.168,45.6 C19.560002,46.5760049 19.756,47.7519931 19.756,49.128 C19.756,50.5040069 19.5640019,51.687995 19.18,52.68 C18.7959981,53.672005 18.2560035,54.4879968 17.56,55.128 C16.8639965,55.7680032 16.0400048,56.2399985 15.088,56.544 C14.1359952,56.8480015 13.1000056,57 11.98,57 L7.132,57 Z M11.26,53.688 L11.5,53.688 C12.0600028,53.688 12.5879975,53.6200007 13.084,53.484 C13.5800025,53.3479993 14.0079982,53.1120017 14.368,52.776 C14.7280018,52.4399983 15.011999,51.976003 15.22,51.384 C15.428001,50.791997 15.532,50.0400046 15.532,49.128 C15.532,48.2159954 15.428001,47.4720029 15.22,46.896 C15.011999,46.3199971 14.7280018,45.8720016 14.368,45.552 C14.0079982,45.2319984 13.5800025,45.0120006 13.084,44.892 C12.5879975,44.7719994 12.0600028,44.712 11.5,44.712 L11.26,44.712 L11.26,53.688 Z M22.54,57 L22.54,41.4 L32.716,41.4 L32.716,44.856 L26.668,44.856 L26.668,47.832 L31.852,47.832 L31.852,51.288 L26.668,51.288 L26.668,57 L22.54,57 Z M35.26,57 L35.26,53.688 L38.524,53.688 L38.524,45.816 L35.644,45.816 L35.644,43.272 C36.5080043,43.0959991 37.243997,42.8960011 37.852,42.672 C38.460003,42.4479989 39.0519971,42.1520018 39.628,41.784 L42.652,41.784 L42.652,53.688 L45.388,53.688 L45.388,57 L35.26,57 Z M52.828,48.504 C53.1960018,48.504 53.5519983,48.404001 53.896,48.204 C54.2400017,48.003999 54.5319988,47.6720023 54.772,47.208 C54.6919996,46.6799974 54.5760008,46.2440017 54.424,45.9 C54.2719992,45.5559983 54.1080009,45.284001 53.932,45.084 C53.7559991,44.883999 53.568001,44.7480004 53.368,44.676 C53.167999,44.6039996 52.972001,44.568 52.78,44.568 C52.3479978,44.568 51.9680016,44.7199985 51.64,45.024 C51.3119984,45.3280015 51.148,45.879996 51.148,46.68 C51.148,47.0480018 51.1959995,47.3479988 51.292,47.58 C51.3880005,47.8120012 51.5119992,47.9959993 51.664,48.132 C51.8160008,48.2680007 51.991999,48.3639997 52.192,48.42 C52.392001,48.4760003 52.6039989,48.504 52.828,48.504 Z M52.348,57.288 C51.2599946,57.288 50.3240039,57.0960019 49.54,56.712 C48.7559961,56.3279981 48.1080026,55.8800026 47.596,55.368 L49.756,52.92 C49.9960012,53.1920014 50.3319978,53.4359989 50.764,53.652 C51.1960022,53.8680011 51.6279978,53.976 52.06,53.976 C52.4440019,53.976 52.7959984,53.9080007 53.116,53.772 C53.4360016,53.6359993 53.7199988,53.4040016 53.968,53.076 C54.2160012,52.7479984 54.4199992,52.3240026 54.58,51.804 C54.7400008,51.2839974 54.8359998,50.6400038 54.868,49.872 C54.675999,50.1120012 54.4600012,50.327999 54.22,50.52 C53.9799988,50.712001 53.7280013,50.8719994 53.464,51 C53.1999987,51.1280006 52.9440012,51.2239997 52.696,51.288 C52.4479988,51.3520003 52.220001,51.384 52.012,51.384 C51.3559967,51.384 50.7480028,51.2920009 50.188,51.108 C49.6279972,50.9239991 49.144002,50.6400019 48.736,50.256 C48.327998,49.8719981 48.0040012,49.384003 47.764,48.792 C47.5239988,48.199997 47.404,47.496 47.404,46.68 C47.404,45.8639959 47.5439986,45.1360032 47.824,44.496 C48.1040014,43.8559968 48.4839976,43.3120022 48.964,42.864 C49.4440024,42.4159978 50.0039968,42.0760012 50.644,41.844 C51.2840032,41.6119988 51.9639964,41.496 52.684,41.496 C53.4200037,41.496 54.1439964,41.6359986 54.856,41.916 C55.5680036,42.1960014 56.2039972,42.639997 56.764,43.248 C57.3240028,43.856003 57.7759983,44.6439952 58.12,45.612 C58.4640017,46.5800048 58.636,47.7519931 58.636,49.128 C58.636,50.5040069 58.4600018,51.7039949 58.108,52.728 C57.7559982,53.7520051 57.2920029,54.5999966 56.716,55.272 C56.1399971,55.9440034 55.4720038,56.4479983 54.712,56.784 C53.9519962,57.1200017 53.1640041,57.288 52.348,57.288 Z"
        id="DF19" fill="#FFFFFF" fill-rule="nonzero"></path>
      <path
        d="M24.4636583,33.1274584 C23.7319869,33.1274584 22.9899616,32.9410892 22.3104428,32.5487937 L7.15817126,23.8005647 C5.09430556,22.609106 4.38717654,19.9700269 5.57901872,17.9065447 C6.37818188,16.5221978 7.82810314,15.7479605 9.31943977,15.7479605 C10.0514947,15.748344 10.7931365,15.9347131 11.4726553,16.3273922 L26.6249268,25.0752376 C28.6887925,26.2666964 29.3959216,28.905392 28.2044629,30.9692577 C27.4052997,32.3532211 25.954995,33.1274584 24.4636583,33.1274584 Z M39.5361286,7.00011504 C40.2681835,7.00011504 41.0102088,7.18648419 41.6897276,7.57916321 L56.8419992,16.3270087 C58.9058649,17.5184674 59.6126104,20.1575465 58.4211517,22.2210287 C57.6219885,23.6053757 56.1716838,24.3796129 54.6807306,24.3796129 C53.9486757,24.3796129 53.2066504,24.1928603 52.5271317,23.8005647 L37.3748601,15.0523358 C35.3113779,13.8608771 34.6042489,11.2221814 35.7957076,9.15831574 C36.5948707,7.77435229 38.0451755,7.00011504 39.5361286,7.00011504 Z M44.9965144,20.6752002 L51.9976285,24.7170331 C52.6357319,25.0859366 53.3417105,25.3179394 54.0676299,25.402304 L41.6894208,32.5487554 C41.0099021,32.9410509 40.2682602,33.12742 39.5365888,33.12742 C38.0452522,33.12742 36.5949474,32.3535663 35.7957843,30.9696028 C34.6039421,28.9057371 35.3114546,26.2670415 37.3749368,25.0755828 L44.9965144,20.6752002 Z M19.0035026,19.4526033 L12.0023885,15.410387 C11.3646686,15.0418669 10.6583065,14.8098642 9.93238717,14.7254995 L22.3105962,7.57904816 C22.990115,7.18675262 23.7317568,7 24.4638117,7 C25.9547649,7 27.4050696,7.77423725 28.2046162,9.1582007 C29.3960749,11.2216829 28.6889459,13.860762 26.6250802,15.0522207 L19.0035026,19.4526033 Z"
        id="Fill-7" fill="#FFFFFF"></path>
    </g>
  </g>
</svg>