<svg width="68px" height="68px" viewBox="0 0 68 68" version="1.1" xmlns="http://www.w3.org/2000/svg"
  xmlns:xlink="http://www.w3.org/1999/xlink">
  <g id="Symbols" stroke="none" stroke-width="1" fill="none" fill-rule="evenodd">
    <g id="kanaprac" transform="translate(2.000000, 2.000000)">
      <rect id="Rectangle" stroke="#FFFFFF" stroke-width="2" fill="#555555" x="-1" y="-1" width="66" height="66" rx="2">
      </rect>
      <path d="M2,32 L62,32 L62,61 C62,61.5522847 61.5522847,62 61,62 L3,62 C2.44771525,62 2,61.5522847 2,61 L2,32 Z"
        id="Rectangle" fill="#FFFFFF"></path>
      <path
        d="M13.784,40.928 L18.504,47.008 C18.6,47.136 18.648,47.28 18.648,47.424 C18.648,47.664 18.504,47.904 18.296,48.064 C18.152,48.176 17.992,48.224 17.816,48.224 C17.608,48.224 17.384,48.128 17.256,47.952 L12.728,41.936 L10.984,43.712 L10.984,47.552 C10.984,47.984 10.664,48.208 10.232,48.208 C9.784,48.208 9.464,47.984 9.464,47.552 L9.464,36.208 C9.464,35.76 9.784,35.552 10.232,35.552 C10.664,35.552 10.984,35.76 10.984,36.208 L10.984,41.792 L16.776,35.744 C16.904,35.6 17.096,35.536 17.272,35.536 C17.464,35.536 17.656,35.6 17.8,35.728 C17.976,35.872 18.072,36.112 18.072,36.336 C18.072,36.496 18.024,36.656 17.912,36.768 L13.784,40.928 Z M22.424,44.464 L21.192,47.76 C21.08,48.08 20.84,48.208 20.568,48.208 C20.456,48.208 20.36,48.192 20.248,48.16 C19.928,48.08 19.688,47.808 19.688,47.504 C19.688,47.408 19.704,47.328 19.736,47.232 L24.088,36.304 C24.296,35.76 24.696,35.552 25.192,35.552 C25.704,35.552 26.12,35.76 26.328,36.304 L30.68,47.264 C30.728,47.36 30.744,47.44 30.744,47.536 C30.744,47.856 30.488,48.096 30.168,48.176 C30.072,48.208 29.976,48.224 29.88,48.224 C29.592,48.224 29.336,48.08 29.224,47.776 L27.96,44.464 L22.424,44.464 Z M22.904,43.12 L27.48,43.12 L25.704,38.464 C25.528,38 25.352,37.488 25.208,36.944 C25.064,37.488 24.904,38 24.712,38.48 L22.904,43.12 Z M40.824,41.056 L40.824,36.208 C40.824,35.76 41.144,35.552 41.592,35.552 C42.04,35.552 42.344,35.76 42.344,36.208 L42.344,47.2 C42.344,47.824 42.024,48.208 41.384,48.208 C40.696,48.208 40.44,47.936 40.04,47.296 L35.8,40.432 C35.16,39.408 34.36,37.84 33.992,37.04 C34.088,38.064 34.216,40.288 34.216,42.64 L34.216,47.552 C34.216,47.984 33.896,48.208 33.464,48.208 C33.016,48.208 32.696,47.984 32.696,47.552 L32.696,36.512 C32.696,35.92 33.08,35.552 33.704,35.552 C34.424,35.552 34.696,35.84 35,36.32 L39.032,42.864 C39.768,44.064 40.664,45.776 41.08,46.672 C40.984,45.68 40.824,43.36 40.824,41.056 Z M47.048,44.464 L45.816,47.76 C45.704,48.08 45.464,48.208 45.192,48.208 C45.08,48.208 44.984,48.192 44.872,48.16 C44.552,48.08 44.312,47.808 44.312,47.504 C44.312,47.408 44.328,47.328 44.36,47.232 L48.712,36.304 C48.92,35.76 49.32,35.552 49.816,35.552 C50.328,35.552 50.744,35.76 50.952,36.304 L55.304,47.264 C55.352,47.36 55.368,47.44 55.368,47.536 C55.368,47.856 55.112,48.096 54.792,48.176 C54.696,48.208 54.6,48.224 54.504,48.224 C54.216,48.224 53.96,48.08 53.848,47.776 L52.584,44.464 L47.048,44.464 Z M47.528,43.12 L52.104,43.12 L50.328,38.464 C50.152,38 49.976,37.488 49.832,36.944 C49.688,37.488 49.528,38 49.336,38.48 L47.528,43.12 Z"
        id="KANA" fill="#555555" fill-rule="nonzero"></path>
      <path
        d="M19.784,18.432 C20.024,17.456 20.2,16.464 20.344,15.488 C20.392,15.072 20.632,14.928 20.952,14.928 C21,14.928 21.048,14.928 21.096,14.944 C21.464,14.976 21.672,15.168 21.672,15.488 C21.672,15.536 21.672,15.584 21.656,15.632 C21.528,16.544 21.336,17.488 21.128,18.368 C21.592,18.352 21.976,18.336 22.36,18.336 C24.552,18.336 25.512,19.456 25.512,21.952 C25.512,23.488 25.288,25.072 24.952,26.224 C24.504,27.792 23.592,28.368 22.312,28.368 C21.544,28.368 20.648,28.16 19.992,27.792 C19.768,27.664 19.64,27.44 19.64,27.2 C19.64,27.088 19.656,26.976 19.72,26.88 C19.816,26.656 20.008,26.528 20.232,26.528 C20.36,26.528 20.504,26.56 20.648,26.64 C21.112,26.864 21.752,27.04 22.344,27.04 C23.016,27.04 23.432,26.752 23.72,25.728 C23.976,24.832 24.184,23.312 24.184,21.888 C24.184,20.112 23.72,19.52 22.216,19.52 C21.672,19.52 21.24,19.552 20.84,19.584 C20.584,20.512 20.296,21.456 19.976,22.384 C19.224,24.544 18.36,26.48 17.384,28.064 C17.224,28.352 17,28.464 16.776,28.464 C16.664,28.464 16.536,28.432 16.424,28.352 C16.2,28.224 16.072,28.016 16.072,27.792 C16.072,27.664 16.104,27.52 16.2,27.376 C17.16,25.84 18.024,24.016 18.744,21.984 C19,21.232 19.272,20.464 19.48,19.68 C18.664,19.744 17.528,19.904 16.616,20.032 C16.568,20.048 16.52,20.048 16.472,20.048 C16.2,20.048 15.976,19.872 15.928,19.536 C15.912,19.504 15.912,19.456 15.912,19.408 C15.912,19.104 16.12,18.864 16.456,18.816 C17.416,18.672 18.744,18.512 19.784,18.432 Z M30.024,23.152 C30.056,23.248 30.072,23.36 30.072,23.44 C30.072,23.728 29.928,23.936 29.672,24.016 C29.576,24.064 29.464,24.08 29.368,24.08 C29.096,24.08 28.872,23.92 28.76,23.584 C28.168,21.776 27.064,19.456 25.8,17.888 C25.72,17.792 25.688,17.68 25.688,17.568 C25.688,17.36 25.816,17.136 26.04,17.024 C26.152,16.96 26.264,16.928 26.376,16.928 C26.6,16.928 26.808,17.04 26.952,17.216 C28.2,18.768 29.448,21.232 30.024,23.152 Z M41.992,17.056 C43.208,17.52 44.488,18.208 45.384,18.816 C45.608,18.96 45.704,19.2 45.704,19.408 C45.704,19.536 45.672,19.664 45.608,19.776 C45.48,19.968 45.272,20.08 45.064,20.08 C44.92,20.08 44.792,20.032 44.664,19.952 C43.72,19.296 42.52,18.672 41.32,18.192 C41.112,18.112 41.016,17.92 41.016,17.712 C41.016,17.584 41.048,17.456 41.112,17.344 C41.256,17.12 41.464,17.008 41.704,17.008 C41.8,17.008 41.896,17.024 41.992,17.056 Z M36.504,18.816 C35.736,21.328 34.696,23.856 33.496,25.952 C33.336,26.224 33.128,26.368 32.904,26.368 C32.76,26.368 32.616,26.32 32.456,26.224 C32.248,26.096 32.152,25.904 32.152,25.696 C32.152,25.552 32.2,25.376 32.296,25.216 C33.4,23.344 34.472,21.056 35.128,18.896 C34.536,18.928 33.912,18.944 33.288,18.944 L32.68,18.944 C32.312,18.944 32.12,18.704 32.12,18.32 C32.12,17.936 32.344,17.696 32.712,17.696 L33.4,17.696 C34.088,17.696 34.808,17.68 35.496,17.648 C35.72,16.864 35.912,16.064 36.072,15.248 C36.104,14.896 36.344,14.72 36.664,14.72 C36.712,14.72 36.76,14.72 36.824,14.736 C37.176,14.8 37.384,14.976 37.384,15.296 C37.384,15.36 37.384,15.424 37.368,15.504 C37.224,16.16 37.064,16.848 36.888,17.536 C37.672,17.472 38.424,17.408 39.096,17.312 C39.144,17.296 39.192,17.296 39.24,17.296 C39.56,17.296 39.752,17.488 39.816,17.824 L39.816,17.92 C39.816,18.224 39.624,18.464 39.24,18.528 C38.408,18.656 37.464,18.736 36.504,18.816 Z M42.6,24.256 C43.672,24.768 44.808,25.52 45.608,26.32 C45.768,26.48 45.848,26.672 45.848,26.848 C45.848,27.008 45.784,27.168 45.672,27.296 C45.528,27.44 45.368,27.52 45.208,27.52 C45.048,27.52 44.872,27.44 44.728,27.312 C44.104,26.688 43.32,26.032 42.648,25.648 C42.68,25.84 42.68,26.048 42.68,26.192 C42.6,27.936 41.48,28.752 39.304,28.752 C37.304,28.752 35.976,27.696 35.976,26.192 C35.976,24.656 37.336,23.552 39.32,23.552 C39.992,23.552 40.648,23.648 41.304,23.824 C41.208,22.928 41.128,21.664 41.128,20.624 C41.128,20.16 41.4,19.968 41.752,19.968 C42.136,19.968 42.408,20.176 42.408,20.624 C42.408,22 42.472,23.12 42.6,24.256 Z M41.4,25.104 C40.76,24.816 40.04,24.688 39.352,24.688 C38.056,24.688 37.24,25.296 37.24,26.176 C37.24,27.056 38.024,27.552 39.336,27.552 C40.696,27.552 41.432,27.04 41.432,25.904 C41.432,25.648 41.432,25.424 41.4,25.104 Z"
        id="かな" fill="#FFFFFF" fill-rule="nonzero"></path>
    </g>
  </g>
</svg>