<svg width="68px" height="68px" viewBox="0 0 68 68" version="1.1" xmlns="http://www.w3.org/2000/svg"
  xmlns:xlink="http://www.w3.org/1999/xlink">
  <g id="Symbols" stroke="none" stroke-width="1" fill="none" fill-rule="evenodd">
    <g id="Fortune" transform="translate(2.000000, 2.000000)">
      <g id="Back">
        <rect id="Rectangle" stroke="#FFFFFF" stroke-width="2" fill="#555555" stroke-linejoin="round" x="-1" y="-1"
          width="42" height="58" rx="4"></rect>
        <rect id="Rectangle" fill="#FFFFFF" x="2" y="2" width="36" height="52" rx="2"></rect>
        <path
          d="M1,24 L25,0 L28,0 L1,27 L1,24 Z M1,14 L15,0 L18,0 L1,17 L1,14 Z M1,31 L32,0 L35,0 L1,34 L1,31 Z M1,37 L37.0009339,0.999066083 L38.9913113,2.00868874 L1,40 L1,37 Z M1,43 L39,5 L39,8 L1,46 L1,43 Z M1,50 L39,12 L39,15 L1,53 L1,50 Z M3.94930894,55.0506911 L39,20 L39,23 L7.01089409,54.9891059 L3.94930894,55.0506911 Z M14,55 L39,30 L39,33 L17,55 L14,55 Z M26,55 L39,42 L39,45 L29,55 L26,55 Z M1,3 L3,1 L6,1 L1,6 L1,3 Z"
          id="Path-10-Copy-4" fill="#555555"></path>
      </g>
      <rect id="Rectangle-Copy-5" fill="#FFFFFF" x="22" y="6" width="44" height="60" rx="6"></rect>
      <g id="Front" transform="translate(24.000000, 8.000000)">
        <rect id="Rectangle" stroke="#FFFFFF" stroke-width="2" fill="#555555" stroke-linejoin="round" x="-1" y="-1"
          width="42" height="58" rx="4"></rect>
        <rect id="Rectangle" fill="#FFFFFF" x="2" y="2" width="36" height="52" rx="2"></rect>
        <path
          d="M13,33 L27,33 C27.5522847,33 28,33.4477153 28,34 C28,34.5522847 27.5522847,35 27,35 L13,35 C12.4477153,35 12,34.5522847 12,34 C12,33.4477153 12.4477153,33 13,33 Z M13,45 L27,45 C27.5522847,45 28,45.4477153 28,46 C28,46.5522847 27.5522847,47 27,47 L13,47 C12.4477153,47 12,46.5522847 12,46 C12,45.4477153 12.4477153,45 13,45 Z M13,37 L27,37 C27.5522847,37 28,37.4477153 28,38 C28,38.5522847 27.5522847,39 27,39 L13,39 C12.4477153,39 12,38.5522847 12,38 C12,37.4477153 12.4477153,37 13,37 Z M13,41 L27,41 C27.5522847,41 28,41.4477153 28,42 C28,42.5522847 27.5522847,43 27,43 L13,43 C12.4477153,43 12,42.5522847 12,42 C12,41.4477153 12.4477153,41 13,41 Z"
          id="Text" fill="#555555"></path>
        <rect id="Title" fill="#555555" x="7" y="27" width="26" height="2" rx="1"></rect>
        <circle id="Center" fill="#555555" cx="20" cy="15" r="8"></circle>
        <circle id="TL" fill="#555555" cx="6" cy="6" r="2"></circle>
        <circle id="TR" fill="#555555" cx="34" cy="6" r="2"></circle>
        <circle id="BR" fill="#555555" cx="34" cy="50" r="2"></circle>
        <circle id="BL" fill="#555555" cx="6" cy="50" r="2"></circle>
      </g>
    </g>
  </g>
</svg>